<?xml version="1.0" encoding="utf-8"?>
<!-- Generator: Adobe Illustrator 16.0.0, SVG Export Plug-In . SVG Version: 6.00 Build 0)  -->
<!DOCTYPE svg PUBLIC "-//W3C//DTD SVG 1.1//EN" "http://www.w3.org/Graphics/SVG/1.1/DTD/svg11.dtd">
<svg version="1.1" id="Calque_1" xmlns="http://www.w3.org/2000/svg" xmlns:xlink="http://www.w3.org/1999/xlink" x="0px" y="0px"
	 width="595.28px" height="841.89px" viewBox="0 0 595.28 841.89" enable-background="new 0 0 595.28 841.89" xml:space="preserve">
<g>
	<g>
		<rect x="187.009" y="369.799" fill="#136283" width="7.957" height="55.708"/>
		<path fill="#136283" d="M224.857,380.941v1.99h-7.958v-1.99c0-2.653-1.327-3.979-3.979-3.979s-3.979,1.326-3.979,3.979v33.425
			c0,2.651,1.326,3.979,3.979,3.979s3.979-1.327,3.979-3.979v-1.99h7.958v1.99c0,7.958-3.979,11.936-11.938,11.936
			s-11.938-3.979-11.938-11.936v-33.425c0-7.958,3.979-11.937,11.938-11.937S224.857,372.983,224.857,380.941"/>
		<path fill="#136283" d="M254.749,380.941v1.99h-7.958v-1.99c0-2.653-1.326-3.979-3.979-3.979c-2.653,0-3.979,1.326-3.979,3.979
			v33.425c0,2.651,1.326,3.979,3.979,3.979c2.652,0,3.979-1.327,3.979-3.979v-1.99h7.958v1.99c0,7.958-3.979,11.936-11.937,11.936
			c-7.959,0-11.938-3.979-11.938-11.936v-33.425c0-7.958,3.979-11.937,11.938-11.937
			C250.769,369.004,254.749,372.983,254.749,380.941"/>
		<g>
			<g>
				<path fill="#136283" d="M334.843,379.244c-2.527,0-4.706,1.477-5.736,3.612c1.257,0.46,2.448,1.001,3.6,1.583
					c0.418-0.755,1.213-1.274,2.137-1.274c0.932,0,1.731,0.525,2.146,1.29c0.831-1.021,1.745-1.998,2.742-2.924
					C338.563,380.134,336.808,379.244,334.843,379.244z"/>
				<path fill="#136283" d="M319.904,377.186c-0.618,1.083-1.114,2.245-1.481,3.465c2.393,0.152,4.694,0.526,6.895,1.071
					c1.536-3.753,5.22-6.399,9.525-6.399c3.189,0,6.039,1.451,7.927,3.727c2.91-2.111,6.291-3.86,10.014-5.154
					c0.774-0.847,0.759-2.154-0.061-2.975l-3.186-3.186c-0.842-0.842-2.205-0.842-3.048,0l-3.217,2.941
					c-1.166-0.666-2.421-1.195-3.743-1.568l-0.275-4.372c0-1.196-0.961-2.157-2.156-2.157h-4.509c-1.196,0-2.157,0.961-2.157,2.157
					l-0.273,4.372c-1.324,0.373-2.579,0.902-3.745,1.568l-3.216-2.941c-0.844-0.842-2.205-0.842-3.05,0l-3.186,3.186
					c-0.842,0.844-0.842,2.206,0,3.049L319.904,377.186z"/>
			</g>
			<path fill="#136283" d="M303.574,372.542c3.52,0,6.372-2.853,6.372-6.372s-2.853-6.373-6.372-6.373s-6.373,2.854-6.373,6.373
				S300.055,372.542,303.574,372.542z M303.574,363.72c1.354,0,2.451,1.098,2.451,2.451s-1.098,2.451-2.451,2.451
				s-2.451-1.098-2.451-2.451S302.221,363.72,303.574,363.72z"/>
			<g>
				<path fill="#136283" d="M274.377,411.494c0.576,0.329,1.174,0.624,1.79,0.883c1.597-1.443,3.435-2.718,5.469-3.777
					c0.783-0.595,1.652-0.999,2.575-1.185c0.735-0.296,1.489-0.565,2.262-0.809c-0.031-0.137-0.054-0.276-0.082-0.414
					c-1.117,0.416-2.321,0.654-3.583,0.654c-5.685,0-10.293-4.607-10.293-10.293c0-5.685,4.608-10.293,10.293-10.293
					c3.368,0,6.35,1.625,8.227,4.126c2.615-2.96,6.136-5.43,10.267-7.194c-0.043-0.486-0.241-0.961-0.613-1.334l-3.187-3.186
					c-0.843-0.842-2.205-0.842-3.048,0l-3.216,2.941c-1.166-0.666-2.421-1.195-3.745-1.568l-0.274-4.372
					c0-1.196-0.961-2.157-2.156-2.157h-4.509c-1.196,0-2.157,0.961-2.157,2.157l-0.276,4.372c-1.322,0.373-2.578,0.902-3.744,1.568
					l-3.215-2.941c-0.843-0.842-2.205-0.842-3.049,0l-3.187,3.186c-0.842,0.844-0.842,2.206,0,3.049l2.941,3.216
					c-0.666,1.166-1.196,2.421-1.569,3.745l-4.371,0.274c-1.196,0-2.157,0.96-2.157,2.157v4.509c0,1.195,0.961,2.156,2.157,2.156
					l4.371,0.275c0.373,1.322,0.903,2.578,1.569,3.744l-2.941,3.215c-0.842,0.844-0.842,2.206,0,3.049l3.187,3.186
					c0.844,0.844,2.206,0.844,3.049,0L274.377,411.494z"/>
				<path fill="#136283" d="M282.808,390.182c-3.519,0-6.373,2.853-6.373,6.372c0,3.519,2.854,6.372,6.373,6.372
					c1.194,0,2.307-0.334,3.263-0.906c0.137-2.911,1.006-5.682,2.48-8.211C287.525,391.666,285.342,390.182,282.808,390.182z
					 M282.808,399.005c-1.353,0-2.451-1.099-2.451-2.451s1.098-2.451,2.451-2.451s2.45,1.099,2.45,2.451
					S284.161,399.005,282.808,399.005z"/>
			</g>
			<path fill="none" stroke="#136283" stroke-miterlimit="10" d="M419.001,424.258c-1.054-7.685-7.211-14.215-15.849-17.611
				c1.154-2.653,1.786-5.48,1.786-8.419c0-15.022-16.302-27.201-36.409-27.201c-5.479,0-10.665,0.913-15.323,2.533
				c-3.724,1.294-7.104,3.042-10.015,5.154c-1.077,0.781-2.098,1.605-3.039,2.48c-0.997,0.926-1.911,1.904-2.742,2.924
				c-0.449,0.552-0.876,1.115-1.272,1.692c-0.947-0.62-1.964-1.178-3.01-1.707c-1.151-0.582-2.342-1.123-3.599-1.583
				c-1.216-0.446-2.489-0.812-3.789-1.133c-1.32-0.327-2.671-0.604-4.064-0.793c-1.758-0.238-3.566-0.368-5.416-0.368
				c-6.424,0-12.374,1.503-17.271,4.058c-3.142,1.639-5.847,3.712-7.96,6.104c-0.954,1.079-1.786,2.223-2.484,3.421
				c-1.474,2.53-2.344,5.3-2.481,8.211c-0.013,0.268-0.027,0.536-0.027,0.807c0,1.145,0.126,2.267,0.347,3.367
				c0.028,0.138,0.051,0.276,0.082,0.413c-0.772,0.244-1.526,0.513-2.261,0.809c-0.924,0.186-1.793,0.59-2.576,1.185
				c-2.034,1.059-3.871,2.333-5.468,3.777c-2.833,2.561-4.903,5.661-5.918,9.083"/>
			<path fill="#136283" d="M285.693,380.865l3.186,3.186c0.844,0.843,2.207,0.843,3.049,0l3.217-2.94
				c1.166,0.666,2.421,1.195,3.744,1.567l0.101,1.605c4.896-2.555,10.847-4.058,17.271-4.058c1.85,0,3.658,0.129,5.416,0.368
				c0.606-0.843,0.536-2.018-0.222-2.777l-2.939-3.215c0.666-1.166,1.194-2.421,1.566-3.744l4.373-0.275
				c0.702,0,1.318-0.337,1.711-0.854c0.275-0.362,0.445-0.809,0.445-1.301v-4.509c0-1.197-0.961-2.157-2.156-2.157l-4.373-0.274
				c-0.372-1.324-0.9-2.579-1.566-3.745l2.939-3.216c0.843-0.843,0.843-2.205,0-3.049l-3.186-3.186
				c-0.843-0.842-2.205-0.842-3.049,0l-3.216,2.941c-1.166-0.666-2.421-1.195-3.744-1.568l-0.274-4.373
				c0-1.195-0.961-2.157-2.156-2.157h-4.509c-1.195,0-2.157,0.961-2.157,2.157l-0.275,4.373c-1.323,0.373-2.578,0.902-3.744,1.568
				l-3.217-2.941c-0.842-0.842-2.205-0.842-3.049,0l-3.186,3.186c-0.842,0.844-0.842,2.206,0,3.049l2.941,3.216
				c-0.666,1.166-1.195,2.421-1.568,3.745l-4.372,0.274c-1.196,0-2.157,0.96-2.157,2.157v4.509c0,1.195,0.961,2.156,2.157,2.156
				l4.372,0.275c0.373,1.323,0.902,2.578,1.568,3.744l-1.394,1.523l-1.548,1.691C284.851,378.66,284.851,380.021,285.693,380.865z
				 M303.574,355.877c5.686,0,10.293,4.608,10.293,10.293s-4.607,10.293-10.293,10.293c-5.686,0-10.293-4.608-10.293-10.293
				S297.888,355.877,303.574,355.877z"/>
		</g>
	</g>
	<g>
		<path fill="#136283" d="M190.399,431.73v1.006h-0.99v8.005h0.99v1.006h-3.167v-1.006h0.99v-8.005h-0.99v-1.006H190.399z"/>
		<path fill="#136283" d="M199.087,441.747h-1.16v-4.079c0-1.519-0.561-2.277-1.683-2.277c-0.58,0-1.06,0.216-1.439,0.646
			s-0.569,0.974-0.569,1.631v4.079h-1.159v-7.152h1.159v1.188h0.028c0.547-0.904,1.339-1.355,2.376-1.355
			c0.792,0,1.397,0.253,1.817,0.758s0.629,1.235,0.629,2.189V441.747z"/>
		<path fill="#136283" d="M208.61,441.174c0,2.627-1.272,3.939-3.818,3.939c-0.896,0-1.678-0.167-2.347-0.503v-1.146
			c0.815,0.447,1.593,0.671,2.333,0.671c1.782,0,2.672-0.937,2.672-2.808v-0.782h-0.028c-0.552,0.912-1.381,1.368-2.489,1.368
			c-0.9,0-1.625-0.317-2.174-0.953c-0.549-0.636-0.824-1.489-0.824-2.56c0-1.216,0.296-2.182,0.887-2.899
			c0.592-0.717,1.401-1.075,2.429-1.075c0.976,0,1.699,0.387,2.171,1.159h0.028v-0.991h1.16V441.174z M207.45,438.513v-1.055
			c0-0.568-0.194-1.055-0.583-1.46c-0.389-0.405-0.873-0.607-1.453-0.607c-0.716,0-1.277,0.257-1.683,0.771
			s-0.608,1.235-0.608,2.162c0,0.796,0.194,1.434,0.583,1.91c0.389,0.478,0.904,0.716,1.545,0.716c0.65,0,1.18-0.228,1.587-0.685
			C207.247,439.81,207.45,439.226,207.45,438.513z"/>
		<path fill="#136283" d="M217.935,438.457h-5.112c0.019,0.796,0.235,1.411,0.65,1.844c0.415,0.434,0.985,0.649,1.711,0.649
			c0.815,0,1.565-0.265,2.249-0.796v1.075c-0.637,0.457-1.478,0.685-2.524,0.685c-1.023,0-1.827-0.324-2.411-0.974
			c-0.584-0.65-0.877-1.563-0.877-2.742c0-1.112,0.319-2.02,0.958-2.721c0.639-0.7,1.432-1.051,2.379-1.051
			c0.947,0,1.68,0.303,2.199,0.908s0.778,1.445,0.778,2.521V438.457z M216.747,437.486c-0.005-0.661-0.166-1.176-0.484-1.544
			c-0.318-0.368-0.76-0.552-1.326-0.552c-0.547,0-1.011,0.193-1.393,0.58c-0.382,0.386-0.618,0.892-0.707,1.516H216.747z
			 M216.563,430.948l-1.853,2.291h-0.898l1.577-2.291H216.563z"/>
		<path fill="#136283" d="M226.856,441.747h-1.16v-4.079c0-1.519-0.561-2.277-1.683-2.277c-0.58,0-1.06,0.216-1.439,0.646
			s-0.569,0.974-0.569,1.631v4.079h-1.159v-7.152h1.159v1.188h0.028c0.547-0.904,1.339-1.355,2.376-1.355
			c0.792,0,1.397,0.253,1.817,0.758s0.629,1.235,0.629,2.189V441.747z"/>
		<path fill="#136283" d="M230.793,432.778c-0.208,0-0.384-0.07-0.53-0.21s-0.219-0.316-0.219-0.53c0-0.215,0.073-0.393,0.219-0.534
			c0.146-0.143,0.323-0.214,0.53-0.214c0.212,0,0.393,0.071,0.541,0.214c0.148,0.142,0.223,0.319,0.223,0.534
			c0,0.205-0.074,0.379-0.223,0.523S231.005,432.778,230.793,432.778z M231.358,441.747h-1.159v-7.152h1.159V441.747z"/>
		<path fill="#136283" d="M240.684,438.457h-5.112c0.019,0.796,0.235,1.411,0.65,1.844c0.415,0.434,0.985,0.649,1.711,0.649
			c0.815,0,1.565-0.265,2.249-0.796v1.075c-0.637,0.457-1.478,0.685-2.524,0.685c-1.023,0-1.827-0.324-2.411-0.974
			c-0.584-0.65-0.877-1.563-0.877-2.742c0-1.112,0.319-2.02,0.958-2.721c0.639-0.7,1.432-1.051,2.379-1.051
			c0.947,0,1.68,0.303,2.199,0.908s0.778,1.445,0.778,2.521V438.457z M239.496,437.486c-0.005-0.661-0.166-1.176-0.484-1.544
			c-0.318-0.368-0.76-0.552-1.326-0.552c-0.547,0-1.011,0.193-1.393,0.58c-0.382,0.386-0.618,0.892-0.707,1.516H239.496z"/>
		<path fill="#136283" d="M247.371,435.754c-0.203-0.153-0.495-0.23-0.877-0.23c-0.495,0-0.908,0.23-1.241,0.691
			c-0.332,0.461-0.499,1.09-0.499,1.886v3.646h-1.159v-7.152h1.159v1.474h0.028c0.165-0.503,0.417-0.896,0.757-1.177
			c0.339-0.282,0.719-0.423,1.138-0.423c0.302,0,0.533,0.032,0.693,0.098V435.754z"/>
		<path fill="#136283" d="M250.382,432.778c-0.208,0-0.385-0.07-0.531-0.21c-0.146-0.14-0.219-0.316-0.219-0.53
			c0-0.215,0.073-0.393,0.219-0.534c0.146-0.143,0.323-0.214,0.531-0.214c0.212,0,0.392,0.071,0.54,0.214
			c0.148,0.142,0.223,0.319,0.223,0.534c0,0.205-0.074,0.379-0.223,0.523S250.594,432.778,250.382,432.778z M250.947,441.747h-1.16
			v-7.152h1.16V441.747z"/>
		<path fill="#136283" d="M260.271,438.457h-5.111c0.019,0.796,0.235,1.411,0.65,1.844c0.415,0.434,0.985,0.649,1.711,0.649
			c0.815,0,1.564-0.265,2.248-0.796v1.075c-0.636,0.457-1.478,0.685-2.523,0.685c-1.023,0-1.827-0.324-2.411-0.974
			c-0.585-0.65-0.877-1.563-0.877-2.742c0-1.112,0.319-2.02,0.958-2.721c0.639-0.7,1.432-1.051,2.379-1.051s1.681,0.303,2.199,0.908
			s0.777,1.445,0.777,2.521V438.457z M259.084,437.486c-0.005-0.661-0.166-1.176-0.484-1.544s-0.76-0.552-1.325-0.552
			c-0.547,0-1.012,0.193-1.394,0.58c-0.382,0.386-0.617,0.892-0.707,1.516H259.084z"/>
		<path fill="#136283" d="M274.488,441.747h-1.16v-1.216H273.3c-0.537,0.922-1.367,1.383-2.488,1.383
			c-0.91,0-1.637-0.319-2.182-0.96c-0.544-0.641-0.816-1.513-0.816-2.616c0-1.183,0.302-2.13,0.905-2.843
			c0.604-0.712,1.407-1.068,2.411-1.068c0.994,0,1.718,0.387,2.17,1.159h0.028v-4.428h1.16V441.747z M273.328,438.513v-1.055
			c0-0.577-0.193-1.066-0.579-1.467c-0.387-0.4-0.877-0.601-1.471-0.601c-0.707,0-1.264,0.256-1.669,0.769
			c-0.405,0.512-0.608,1.22-0.608,2.123c0,0.824,0.194,1.476,0.584,1.952c0.389,0.478,0.91,0.716,1.565,0.716
			c0.646,0,1.171-0.23,1.573-0.691C273.127,439.798,273.328,439.216,273.328,438.513z"/>
		<path fill="#136283" d="M283.849,441.747h-1.16v-1.132h-0.028c-0.48,0.866-1.226,1.299-2.234,1.299
			c-1.725,0-2.587-1.015-2.587-3.045v-4.274h1.152v4.093c0,1.509,0.584,2.263,1.753,2.263c0.565,0,1.031-0.206,1.396-0.618
			s0.548-0.95,0.548-1.616v-4.121h1.16V441.747z"/>
		<path fill="#136283" d="M299.527,441.328c-0.749,0.391-1.683,0.586-2.8,0.586c-1.442,0-2.597-0.458-3.464-1.376
			c-0.867-0.917-1.301-2.121-1.301-3.61c0-1.603,0.487-2.896,1.463-3.884s2.213-1.481,3.712-1.481c0.962,0,1.759,0.138,2.39,0.412
			v1.251c-0.726-0.4-1.526-0.601-2.403-0.601c-1.164,0-2.108,0.384-2.832,1.152s-1.085,1.795-1.085,3.08
			c0,1.22,0.338,2.192,1.015,2.916c0.676,0.725,1.563,1.086,2.662,1.086c1.018,0,1.899-0.223,2.644-0.67V441.328z"/>
		<path fill="#136283" d="M303.754,441.747h-1.159v-10.589h1.159V441.747z"/>
		<path fill="#136283" d="M310.286,441.914c-1.07,0-1.925-0.334-2.563-1.002s-0.958-1.554-0.958-2.658
			c0-1.201,0.332-2.14,0.997-2.814c0.664-0.675,1.563-1.013,2.693-1.013c1.08,0,1.922,0.328,2.528,0.984
			c0.605,0.657,0.908,1.567,0.908,2.731c0,1.141-0.326,2.055-0.979,2.741C312.26,441.571,311.384,441.914,310.286,441.914z
			 M310.37,435.391c-0.744,0-1.334,0.25-1.768,0.751c-0.434,0.5-0.65,1.19-0.65,2.071c0,0.847,0.22,1.516,0.658,2.004
			c0.438,0.489,1.024,0.733,1.76,0.733c0.75,0,1.326-0.239,1.729-0.719c0.402-0.479,0.604-1.162,0.604-2.047
			c0-0.895-0.202-1.583-0.604-2.067C311.696,435.633,311.12,435.391,310.37,435.391z"/>
		<path fill="#136283" d="M322.758,441.747h-1.16v-1.132h-0.028c-0.48,0.866-1.226,1.299-2.234,1.299
			c-1.725,0-2.587-1.015-2.587-3.045v-4.274h1.152v4.093c0,1.509,0.584,2.263,1.753,2.263c0.565,0,1.031-0.206,1.396-0.618
			s0.548-0.95,0.548-1.616v-4.121h1.16V441.747z"/>
		<path fill="#136283" d="M332.436,441.747h-1.16v-1.216h-0.028c-0.537,0.922-1.367,1.383-2.488,1.383
			c-0.91,0-1.637-0.319-2.182-0.96c-0.544-0.641-0.816-1.513-0.816-2.616c0-1.183,0.302-2.13,0.905-2.843
			c0.604-0.712,1.407-1.068,2.411-1.068c0.994,0,1.718,0.387,2.17,1.159h0.028v-4.428h1.16V441.747z M331.275,438.513v-1.055
			c0-0.577-0.193-1.066-0.579-1.467c-0.387-0.4-0.877-0.601-1.471-0.601c-0.707,0-1.264,0.256-1.669,0.769
			c-0.405,0.512-0.608,1.22-0.608,2.123c0,0.824,0.194,1.476,0.584,1.952c0.389,0.478,0.91,0.716,1.565,0.716
			c0.646,0,1.171-0.23,1.573-0.691C331.074,439.798,331.275,439.216,331.275,438.513z"/>
		<path fill="#136283" d="M348.121,441.328c-0.749,0.391-1.683,0.586-2.8,0.586c-1.442,0-2.597-0.458-3.464-1.376
			c-0.867-0.917-1.301-2.121-1.301-3.61c0-1.603,0.487-2.896,1.463-3.884s2.213-1.481,3.712-1.481c0.962,0,1.759,0.138,2.39,0.412
			v1.251c-0.726-0.4-1.526-0.601-2.403-0.601c-1.164,0-2.108,0.384-2.832,1.152s-1.085,1.795-1.085,3.08
			c0,1.22,0.338,2.192,1.015,2.916c0.676,0.725,1.563,1.086,2.662,1.086c1.018,0,1.899-0.223,2.644-0.67V441.328z"/>
		<path fill="#136283" d="M354.216,441.914c-1.07,0-1.925-0.334-2.563-1.002s-0.958-1.554-0.958-2.658
			c0-1.201,0.332-2.14,0.997-2.814c0.664-0.675,1.563-1.013,2.693-1.013c1.08,0,1.922,0.328,2.528,0.984
			c0.605,0.657,0.908,1.567,0.908,2.731c0,1.141-0.326,2.055-0.979,2.741C356.189,441.571,355.313,441.914,354.216,441.914z
			 M354.3,435.391c-0.744,0-1.334,0.25-1.768,0.751c-0.434,0.5-0.65,1.19-0.65,2.071c0,0.847,0.22,1.516,0.658,2.004
			c0.438,0.489,1.024,0.733,1.76,0.733c0.75,0,1.326-0.239,1.729-0.719c0.402-0.479,0.604-1.162,0.604-2.047
			c0-0.895-0.202-1.583-0.604-2.067C355.626,435.633,355.05,435.391,354.3,435.391z"/>
		<path fill="#136283" d="M371.112,441.747h-1.16v-4.107c0-0.792-0.123-1.364-0.371-1.718c-0.247-0.354-0.663-0.531-1.248-0.531
			c-0.494,0-0.915,0.224-1.262,0.671c-0.347,0.446-0.52,0.982-0.52,1.606v4.079h-1.159V437.5c0-1.406-0.55-2.109-1.647-2.109
			c-0.51,0-0.929,0.211-1.259,0.632c-0.33,0.422-0.495,0.97-0.495,1.646v4.079h-1.159v-7.152h1.159v1.131h0.028
			c0.514-0.866,1.264-1.299,2.248-1.299c0.495,0,0.927,0.136,1.294,0.408c0.368,0.272,0.62,0.63,0.757,1.072
			c0.537-0.987,1.339-1.48,2.404-1.48c1.593,0,2.39,0.971,2.39,2.913V441.747z"/>
		<path fill="#136283" d="M375.65,440.713h-0.028v4.324h-1.159v-10.442h1.159v1.257h0.028c0.57-0.95,1.404-1.425,2.503-1.425
			c0.934,0,1.662,0.32,2.185,0.96c0.523,0.641,0.785,1.499,0.785,2.574c0,1.197-0.295,2.155-0.884,2.874
			c-0.589,0.72-1.396,1.079-2.418,1.079C376.883,441.914,376.159,441.514,375.65,440.713z M375.622,437.828v0.999
			c0,0.592,0.194,1.093,0.584,1.505c0.389,0.412,0.882,0.618,1.48,0.618c0.702,0,1.253-0.265,1.651-0.796s0.598-1.269,0.598-2.214
			c0-0.797-0.187-1.421-0.559-1.872c-0.373-0.452-0.877-0.678-1.514-0.678c-0.674,0-1.216,0.231-1.626,0.695
			C375.827,436.549,375.622,437.13,375.622,437.828z"/>
		<path fill="#136283" d="M389.988,441.747h-1.16v-1.132H388.8c-0.48,0.866-1.226,1.299-2.234,1.299
			c-1.725,0-2.587-1.015-2.587-3.045v-4.274h1.152v4.093c0,1.509,0.584,2.263,1.753,2.263c0.565,0,1.031-0.206,1.396-0.618
			s0.548-0.95,0.548-1.616v-4.121h1.16V441.747z"/>
		<path fill="#136283" d="M396.845,441.677c-0.273,0.149-0.634,0.224-1.082,0.224c-1.268,0-1.901-0.698-1.901-2.096v-4.232h-1.245
			v-0.978h1.245v-1.747l1.159-0.37v2.117h1.824v0.978h-1.824v4.03c0,0.479,0.082,0.822,0.247,1.026
			c0.165,0.205,0.438,0.308,0.82,0.308c0.292,0,0.545-0.079,0.757-0.237V441.677z"/>
		<path fill="#136283" d="M400.146,432.778c-0.207,0-0.384-0.07-0.53-0.21s-0.219-0.316-0.219-0.53c0-0.215,0.072-0.393,0.219-0.534
			c0.146-0.143,0.323-0.214,0.53-0.214c0.212,0,0.393,0.071,0.541,0.214c0.148,0.142,0.223,0.319,0.223,0.534
			c0,0.205-0.074,0.379-0.223,0.523S400.357,432.778,400.146,432.778z M400.711,441.747h-1.159v-7.152h1.159V441.747z"/>
		<path fill="#136283" d="M410.227,441.747h-1.16v-4.079c0-1.519-0.561-2.277-1.683-2.277c-0.579,0-1.06,0.216-1.438,0.646
			c-0.38,0.431-0.569,0.974-0.569,1.631v4.079h-1.159v-7.152h1.159v1.188h0.028c0.547-0.904,1.339-1.355,2.376-1.355
			c0.792,0,1.397,0.253,1.816,0.758c0.42,0.505,0.63,1.235,0.63,2.189V441.747z"/>
		<path fill="#136283" d="M419.75,441.174c0,2.627-1.273,3.939-3.818,3.939c-0.896,0-1.678-0.167-2.348-0.503v-1.146
			c0.815,0.447,1.594,0.671,2.334,0.671c1.781,0,2.672-0.937,2.672-2.808v-0.782h-0.028c-0.551,0.912-1.381,1.368-2.488,1.368
			c-0.9,0-1.625-0.317-2.174-0.953c-0.55-0.636-0.824-1.489-0.824-2.56c0-1.216,0.296-2.182,0.888-2.899
			c0.591-0.717,1.4-1.075,2.429-1.075c0.976,0,1.699,0.387,2.17,1.159h0.028v-0.991h1.16V441.174z M418.59,438.513v-1.055
			c0-0.568-0.194-1.055-0.583-1.46s-0.873-0.607-1.453-0.607c-0.717,0-1.277,0.257-1.683,0.771s-0.608,1.235-0.608,2.162
			c0,0.796,0.194,1.434,0.584,1.91c0.389,0.478,0.903,0.716,1.545,0.716c0.65,0,1.179-0.228,1.587-0.685
			C418.386,439.81,418.59,439.226,418.59,438.513z"/>
	</g>
</g>
</svg>
